<svg fill="none" height="40" width="41" xmlns="http://www.w3.org/2000/svg"><path d="M.534 20.12a20.216 20.216 0 004.79 13.07A19.962 19.962 0 0017.396 40V25.936h-5.07V20.12h5.076v-4.427a7.146 7.146 0 01.34-3.07 7.109 7.109 0 011.602-2.635 7.047 7.047 0 012.562-1.7 7.007 7.007 0 013.037-.443c1.499.024 2.998.159 4.477.402v4.949h-2.527a2.871 2.871 0 00-2.377.786 2.912 2.912 0 00-.876 2.359v3.78h5.538l-.886 5.817H23.64V40a19.928 19.928 0 0010.15-4.83 20.142 20.142 0 005.964-9.579c1.038-3.7 1-7.624-.107-11.304s-3.24-6.964-6.144-9.462A19.922 19.922 0 0023.263.19a19.864 19.864 0 00-11.107 1.657A20.028 20.028 0 003.69 9.27 20.224 20.224 0 00.535 20.12z" fill="#f8f8f8"/></svg>