<svg width="40" height="40" fill="none" xmlns="http://www.w3.org/2000/svg"><circle cx="20" cy="20" r="20" fill="#F8F8F8"/><path d="M19.999 14.221a5.78 5.78 0 100 11.56 5.78 5.78 0 000-11.56zm0 9.534a3.755 3.755 0 110-7.51 3.755 3.755 0 010 7.51zm6.009-8.399a1.348 1.348 0 100-2.695 1.348 1.348 0 000 2.695z" fill="#000"/><path d="M30.666 12.639a5.756 5.756 0 00-3.291-3.29 8.257 8.257 0 00-2.733-.525c-1.203-.053-1.584-.068-4.637-.068-3.052 0-3.444 0-4.637.068a8.192 8.192 0 00-2.73.525 5.748 5.748 0 00-3.292 3.29 8.232 8.232 0 00-.524 2.732c-.053 1.203-.07 1.584-.07 4.638 0 3.052 0 3.441.07 4.637a8.27 8.27 0 00.524 2.734 5.763 5.763 0 003.293 3.29 8.23 8.23 0 002.731.563c1.204.052 1.585.068 4.638.068 3.052 0 3.443 0 4.637-.068a8.268 8.268 0 002.733-.524 5.767 5.767 0 003.29-3.291 8.231 8.231 0 00.524-2.733c.054-1.202.07-1.584.07-4.637 0-3.054 0-3.442-.07-4.638a8.227 8.227 0 00-.526-2.771zm-1.522 11.915a6.302 6.302 0 01-.389 2.11 3.734 3.734 0 01-2.14 2.139 6.23 6.23 0 01-2.087.388c-1.188.055-1.523.07-4.568.07-3.047 0-3.359 0-4.569-.07a6.2 6.2 0 01-2.086-.388 3.732 3.732 0 01-2.149-2.14 6.348 6.348 0 01-.389-2.085c-.053-1.188-.066-1.523-.066-4.568 0-3.046 0-3.357.066-4.569a6.3 6.3 0 01.39-2.108 3.733 3.733 0 012.148-2.14 6.264 6.264 0 012.086-.39c1.189-.053 1.523-.068 4.569-.068 3.046 0 3.359 0 4.567.069a6.2 6.2 0 012.088.389 3.739 3.739 0 012.14 2.14c.246.668.377 1.373.389 2.086.054 1.189.067 1.522.067 4.569 0 3.045 0 3.372-.053 4.567h-.014v-.001z" fill="#000"/></svg>