<svg width="40" height="40" fill="none" xmlns="http://www.w3.org/2000/svg"><circle cx="20" cy="20" r="20" fill="#F8F8F8"/><path d="M33.555 11.694a11.755 11.755 0 01-2.864 2.975c.016.235.016.485.016.736 0 7.595-5.774 16.349-16.322 16.349-3.24 0-6.26-.955-8.81-2.584.453.047.907.078 1.377.078a11.5 11.5 0 007.12-2.458 5.742 5.742 0 01-5.352-3.994c.344.063.704.11 1.08.11a5.9 5.9 0 001.502-.203 5.758 5.758 0 01-4.6-5.638v-.063c.782.423 1.658.69 2.597.72a5.761 5.761 0 01-2.55-4.791c0-1.05.281-2.036.782-2.882 2.832 3.477 7.058 5.763 11.83 5.998a6.051 6.051 0 01-.156-1.316A5.749 5.749 0 0124.948 9a5.69 5.69 0 014.194 1.817 11.821 11.821 0 003.646-1.394 5.785 5.785 0 01-2.535 3.163 11.073 11.073 0 003.302-.893z" fill="#000"/></svg>