<svg fill="none" height="30" width="30" xmlns="http://www.w3.org/2000/svg"><g fill="#000"><path d="M12.375 0h-1.688L9.563 4.313 8.437 0H6.563c.375 1.125.75 2.063 1.125 3.188.562 1.5.937 2.812.937 3.562v4.5h1.688v-4.5zm4.5 8.438V5.624c0-.938-.188-1.5-.563-2.063s-.937-.75-1.687-.75-1.313.376-1.688.938c-.374.375-.562.938-.562 1.875v3c0 .938.188 1.5.563 1.875.374.563.937.75 1.687.75s1.313-.375 1.688-.938c.375-.187.562-.937.562-1.874zm-1.5.374c0 .75-.188 1.126-.75 1.126s-.75-.376-.75-1.126V5.25c0-.75.188-1.125.75-1.125s.75.375.75 1.125zM22.5 11.25V2.812H21v6.376c-.375.562-.563.75-.938.75a.403.403 0 01-.375-.376v-6.75h-1.5v6.563c0 .563 0 .938.188 1.313 0 .374.375.562.938.562s1.125-.375 1.687-.938v.938zm.75 8.438c-.563 0-.75.375-.75 1.125v.75H24v-.75c0-.75-.188-1.125-.75-1.125zm-5.437 0c-.188 0-.563.187-.75.375v5.062c.187.188.562.375.75.375.375 0 .562-.375.562-1.125v-3.563c0-.75-.187-1.125-.562-1.125z"/><path d="M27 15.563c-.375-1.313-1.5-2.438-2.625-2.438-3-.375-6.188-.375-9.375-.375s-6.188 0-9.375.375c-1.125 0-2.25 1.125-2.625 2.438-.375 1.874-.375 3.937-.375 5.812s0 3.938.375 5.813c.375 1.312 1.312 2.25 2.625 2.437C8.812 30 11.812 30 15 30s6.187 0 9.375-.375c1.312-.188 2.437-1.125 2.625-2.438.375-1.875.375-3.937.375-5.812s0-3.938-.375-5.813zM9.75 17.25H7.875v9.563H6.187V17.25H4.5v-1.688h5.25zm4.5 9.563h-1.5v-.938c-.563.75-1.125.938-1.688.938s-.75-.188-.937-.563c0-.188-.188-.563-.188-1.313v-6.562h1.5v6.563c0 .187.188.375.375.375.375 0 .563-.188.938-.75v-6.188h1.5zm5.625-2.625c0 .75 0 1.312-.188 1.687-.187.563-.562.938-1.125.938s-1.125-.375-1.5-.938v.75h-1.5V15.562h1.5v3.563c.563-.563.938-.938 1.5-.938s.938.375 1.125.938c.188.375.188.938.188 1.688zm5.625-1.313h-3v1.5c0 .75.187 1.125.75 1.125.375 0 .562-.188.75-.563V24h1.5v1.125c0 .375-.188.563-.375.938-.375.562-.938.937-1.875.937-.75 0-1.313-.375-1.875-.938-.375-.375-.563-1.125-.563-1.875v-2.812c0-.938.188-1.5.375-1.875.375-.563.938-.938 1.875-.938.75 0 1.313.375 1.688.938.375.375.375 1.125.375 1.875v1.5z"/></g></svg>