<svg width="40" height="40" fill="none" xmlns="http://www.w3.org/2000/svg"><circle cx="20" cy="20" r="20" fill="#F8F8F8"/><path d="M17.375 5h-1.688l-1.124 4.313L13.437 5h-1.874c.374 1.125.75 2.063 1.124 3.188.563 1.5.938 2.812.938 3.562v4.5h1.688v-4.5L17.375 5zm4.5 8.438v-2.813c0-.938-.188-1.5-.563-2.063-.375-.562-.937-.75-1.687-.75s-1.313.375-1.688.938c-.375.375-.562.938-.562 1.875v3c0 .938.188 1.5.563 1.875.375.563.937.75 1.687.75s1.313-.375 1.688-.938c.375-.187.562-.937.562-1.874zm-1.5.374c0 .75-.188 1.126-.75 1.126-.563 0-.75-.376-.75-1.126V10.25c0-.75.188-1.125.75-1.125.563 0 .75.375.75 1.125v3.563zM27.5 16.25V7.812H26v6.375c-.375.563-.563.75-.938.75a.403.403 0 01-.375-.374v-6.75h-1.5v6.562c0 .563 0 .938.188 1.313 0 .374.375.562.938.562.562 0 1.125-.375 1.687-.938v.938h1.5zm.75 8.438c-.563 0-.75.375-.75 1.125v.75H29v-.75c0-.75-.188-1.125-.75-1.125zm-5.437 0c-.188 0-.563.187-.75.375v5.062c.187.188.562.375.75.375.375 0 .562-.375.562-1.125v-3.563c0-.75-.187-1.125-.562-1.125z" fill="#000"/><path d="M32 20.563c-.375-1.313-1.5-2.438-2.625-2.438-3-.375-6.188-.375-9.375-.375-3.188 0-6.188 0-9.375.375-1.125 0-2.25 1.125-2.625 2.438-.375 1.875-.375 3.937-.375 5.812 0 1.875 0 3.938.375 5.813.375 1.312 1.312 2.25 2.625 2.437C13.812 35 16.812 35 20 35c3.187 0 6.187 0 9.375-.375 1.312-.188 2.437-1.125 2.625-2.438.375-1.874.375-3.937.375-5.812 0-1.875 0-3.938-.375-5.813zM14.75 22.25h-1.875v9.563h-1.688V22.25H9.5v-1.688h5.25v1.688zm4.5 9.563h-1.5v-.938c-.563.75-1.125.938-1.688.938-.562 0-.75-.188-.937-.563 0-.188-.188-.563-.188-1.313v-6.562h1.5v6.563c0 .187.188.375.375.375.375 0 .563-.188.938-.75v-6.188h1.5v8.438zm5.625-2.625c0 .75 0 1.312-.188 1.687-.187.563-.562.938-1.125.938-.562 0-1.125-.375-1.5-.938v.75h-1.5V20.562h1.5v3.563c.563-.563.938-.938 1.5-.938.563 0 .938.375 1.125.938.188.375.188.938.188 1.688v3.375zm5.625-1.313h-3v1.5c0 .75.187 1.125.75 1.125.375 0 .562-.188.75-.563V29h1.5v1.125c0 .375-.188.563-.375.938-.375.562-.938.937-1.875.937-.75 0-1.313-.375-1.875-.938-.375-.375-.563-1.125-.563-1.875v-2.812c0-.938.188-1.5.375-1.875.375-.563.938-.938 1.875-.938.75 0 1.313.375 1.688.938.375.375.375 1.125.375 1.875v1.5h.375z" fill="#000"/></svg>