<svg fill="none" height="40" viewBox="0 0 41 40" width="41" xmlns="http://www.w3.org/2000/svg"><path d="m.53363 20.1202c.001126 4.792 1.69976 9.4264 4.7906 13.0704 3.09084 3.6439 7.37117 6.0584 12.07167 6.8094v-14.0642h-5.0704v-5.8156h5.0764v-4.4272c-.1121-1.0362.0038-2.0845.3394-3.0705.3357-.986.8828-1.8855 1.6026-2.63458.7198-.74912 1.5945-1.32947 2.5622-1.69984.9676-.37037 2.0044-.52167 3.0366-.44316 1.499.02415 2.9979.15897 4.4769.40247v4.94831h-2.5262c-.4294-.0566-.8659-.0154-1.2773.1207s-.7872.3635-1.0996.6655c-.3123.3019-.5533.6707-.7051 1.079-.1518.4084-.2105.8458-.1718 1.2801v3.7792h5.5382l-.8854 5.8176h-4.6528v14.0622c3.7726-.6003 7.2954-2.2765 10.1513-4.8301 2.8559-2.5535 4.9252-5.8776 5.9631-9.5786 1.0378-3.7009 1.0006-7.6238-.1071-11.3042s-3.2397-6.96412-6.1434-9.46241c-2.9037-2.49828-6.4576-4.106512-10.2409-4.634277-3.7833-.527766-7.6376.047035-11.1065 1.656347-3.46895 1.60932-6.40725 4.18575-8.46705 7.42426-2.05979 3.23848-3.154813 7.00348-3.15542 10.84918z" fill="#f8f8f8"/></svg>