<svg width="40" height="40" viewBox="0 0 40 40" fill="none" xmlns="http://www.w3.org/2000/svg">
<circle cx="20" cy="20" r="20" fill="#F8F8F8"/>
<path d="M19.9987 14.2212C18.4658 14.2212 16.9956 14.8302 15.9117 15.9141C14.8277 16.9981 14.2188 18.4682 14.2188 20.0012C14.2188 21.5341 14.8277 23.0043 15.9117 24.0883C16.9956 25.1722 18.4658 25.7812 19.9987 25.7812C21.5317 25.7812 23.0019 25.1722 24.0858 24.0883C25.1698 23.0043 25.7787 21.5341 25.7787 20.0012C25.7787 18.4682 25.1698 16.9981 24.0858 15.9141C23.0019 14.8302 21.5317 14.2212 19.9987 14.2212ZM19.9987 23.7549C19.0029 23.7549 18.0478 23.3593 17.3436 22.6551C16.6394 21.9509 16.2437 20.9958 16.2437 19.9999C16.2437 19.0041 16.6394 18.049 17.3436 17.3448C18.0478 16.6406 19.0029 16.2449 19.9987 16.2449C20.9946 16.2449 21.9497 16.6406 22.6539 17.3448C23.3581 18.049 23.7537 19.0041 23.7537 19.9999C23.7537 20.9958 23.3581 21.9509 22.6539 22.6551C21.9497 23.3593 20.9946 23.7549 19.9987 23.7549Z" fill="black"/>
<path d="M26.0075 15.3561C26.7517 15.3561 27.355 14.7528 27.355 14.0086C27.355 13.2644 26.7517 12.6611 26.0075 12.6611C25.2633 12.6611 24.66 13.2644 24.66 14.0086C24.66 14.7528 25.2633 15.3561 26.0075 15.3561Z" fill="black"/>
<path d="M30.6662 12.6388C30.3769 11.8916 29.9347 11.213 29.3679 10.6464C28.8012 10.0799 28.1224 9.63794 27.375 9.34885C26.5004 9.02054 25.5765 8.84302 24.6425 8.82385C23.4387 8.77135 23.0575 8.75635 20.005 8.75635C16.9525 8.75635 16.5612 8.75635 15.3675 8.82385C14.4342 8.84204 13.5109 9.0196 12.6375 9.34885C11.8899 9.6376 11.2109 10.0794 10.6442 10.646C10.0774 11.2126 9.63527 11.8914 9.34624 12.6388C9.01787 13.5134 8.84076 14.4374 8.82249 15.3713C8.76874 16.5738 8.75249 16.9551 8.75249 20.0088C8.75249 23.0613 8.75249 23.4501 8.82249 24.6463C8.84124 25.5813 9.01749 26.5038 9.34624 27.3801C9.63608 28.1273 10.0786 28.8058 10.6455 29.3723C11.2125 29.9388 11.8913 30.3808 12.6387 30.6701C13.5105 31.0116 14.4342 31.2018 15.37 31.2326C16.5737 31.2851 16.955 31.3013 20.0075 31.3013C23.06 31.3013 23.4512 31.3013 24.645 31.2326C25.5789 31.2136 26.5028 31.0365 27.3775 30.7088C28.1247 30.4191 28.8033 29.9767 29.37 29.4101C29.9366 28.8434 30.379 28.1648 30.6687 27.4176C30.9975 26.5426 31.1737 25.6201 31.1925 24.6851C31.2462 23.4826 31.2625 23.1013 31.2625 20.0476C31.2625 16.9938 31.2625 16.6063 31.1925 15.4101C31.1779 14.4629 30.9999 13.5254 30.6662 12.6388ZM29.1437 24.5538C29.1357 25.2742 29.0042 25.9879 28.755 26.6638C28.5673 27.1499 28.2799 27.5913 27.9113 27.9597C27.5428 28.328 27.1012 28.6152 26.615 28.8026C25.9465 29.0507 25.2404 29.1821 24.5275 29.1913C23.34 29.2463 23.005 29.2601 19.96 29.2601C16.9125 29.2601 16.6012 29.2601 15.3912 29.1913C14.6786 29.1826 13.9729 29.0511 13.305 28.8026C12.8171 28.6163 12.3737 28.3297 12.0036 27.9613C11.6335 27.5929 11.3448 27.1509 11.1562 26.6638C10.9105 25.9952 10.7791 25.2899 10.7675 24.5776C10.7137 23.3901 10.7012 23.0551 10.7012 20.0101C10.7012 16.9638 10.7012 16.6526 10.7675 15.4413C10.7756 14.7214 10.9071 14.0081 11.1562 13.3326C11.5375 12.3463 12.3187 11.5701 13.305 11.1926C13.9732 10.9453 14.6788 10.8138 15.3912 10.8038C16.58 10.7501 16.9137 10.7351 19.96 10.7351C23.0062 10.7351 23.3187 10.7351 24.5275 10.8038C25.2405 10.8124 25.9467 10.9439 26.615 11.1926C27.1011 11.3804 27.5427 11.6679 27.9112 12.0364C28.2797 12.4049 28.5671 12.8464 28.755 13.3326C29.0007 14.0013 29.1321 14.7065 29.1437 15.4188C29.1975 16.6076 29.2112 16.9413 29.2112 19.9876C29.2112 23.0326 29.2112 23.3601 29.1575 24.5551H29.1437V24.5538Z" fill="black"/>
</svg>
