<svg width="40" height="40" viewBox="0 0 40 40" fill="none" xmlns="http://www.w3.org/2000/svg">
<circle cx="20" cy="20" r="20" fill="#F8F8F8"/>
<path d="M33.5552 11.6935C32.7884 12.8367 31.8181 13.8546 30.6914 14.6689C30.707 14.9038 30.707 15.1544 30.707 15.4049C30.707 23 24.9325 31.7539 14.385 31.7539C11.1457 31.7539 8.12539 30.7986 5.57458 29.17C6.02841 29.217 6.48223 29.2483 6.95171 29.2483C9.64335 29.2483 12.1159 28.3244 14.072 26.7897C12.8754 26.7649 11.7164 26.3668 10.7569 25.6509C9.79739 24.9349 9.08528 23.937 8.72005 22.7964C9.06433 22.8591 9.42426 22.906 9.79984 22.906C10.3163 22.906 10.8327 22.8277 11.3022 22.7025C10.0042 22.4358 8.83786 21.7295 7.99975 20.7025C7.16165 19.6756 6.70306 18.3908 6.70132 17.0649V17.0022C7.48378 17.4251 8.36012 17.6913 9.29907 17.7226C8.51318 17.1951 7.8693 16.4819 7.4244 15.6461C6.9795 14.8103 6.74727 13.8776 6.74827 12.9306C6.74827 11.8814 7.02995 10.8949 7.53072 10.0492C10.3632 13.5257 14.5885 15.8121 19.3614 16.047C19.2675 15.6242 19.205 15.1857 19.205 14.7315C19.2091 13.21 19.816 11.7522 20.8926 10.6778C21.9692 9.60335 23.4277 8.99999 24.9482 9C26.607 9 28.0936 9.68904 29.1421 10.8166C30.441 10.5503 31.6773 10.0805 32.7884 9.42282C32.3502 10.7539 31.4425 11.8814 30.2532 12.5861C31.3934 12.4614 32.5073 12.1603 33.5552 11.6935Z" fill="black"/>
</svg>
