<svg fill="none" height="30" viewBox="0 0 30 30" width="30" xmlns="http://www.w3.org/2000/svg"><g fill="#000"><path d="m12.375 0h-1.6875l-1.125 4.3125-1.125-4.3125h-1.875c.375 1.125.75 2.0625 1.125 3.1875.5625 1.5.9375 2.8125.9375 3.5625v4.5h1.6875v-4.5zm4.5 8.4375v-2.8125c0-.9375-.1875-1.5-.5625-2.0625s-.9375-.75-1.6875-.75-1.3125.375-1.6875.9375c-.375.375-.5625.9375-.5625 1.875v3c0 .9375.1875 1.5.5625 1.875.375.5625.9375.75 1.6875.75s1.3125-.375 1.6875-.9375c.375-.1875.5625-.9375.5625-1.875zm-1.5.375c0 .75-.1875 1.125-.75 1.125s-.75-.375-.75-1.125v-3.5625c0-.75.1875-1.125.75-1.125s.75.375.75 1.125zm7.125 2.4375v-8.4375h-1.5v6.375c-.375.5625-.5625.75-.9375.75-.1875 0-.375-.1875-.375-.375v-6.75h-1.5v6.5625c0 .5625 0 .9375.1875 1.3125 0 .375.375.5625.9375.5625s1.125-.375 1.6875-.9375v.9375z"/><path d="m23.25 19.6875c-.5625 0-.75.375-.75 1.125v.75h1.5v-.75c0-.75-.1875-1.125-.75-1.125z"/><path d="m17.8126 19.6875c-.1875 0-.5625.1875-.75.375v5.0625c.1875.1875.5625.375.75.375.375 0 .5625-.375.5625-1.125v-3.5625c0-.75-.1875-1.125-.5625-1.125z"/><path d="m26.9999 15.5625c-.375-1.3125-1.5-2.4375-2.625-2.4375-3-.375-6.1875-.375-9.375-.375s-6.18749 0-9.37499.375c-1.125 0-2.25 1.125-2.625 2.4375-.375 1.875-.375 3.9375-.375 5.8125s0 3.9375.375 5.8125c.375 1.3125 1.3125 2.25 2.625 2.4375 3.1875.375 6.18749.375 9.37499.375s6.1875 0 9.375-.375c1.3125-.1875 2.4375-1.125 2.625-2.4375.375-1.875.375-3.9375.375-5.8125s0-3.9375-.375-5.8125zm-17.24999 1.6875h-1.875v9.5625h-1.6875v-9.5625h-1.6875v-1.6875h5.25zm4.49999 9.5625h-1.5v-.9375c-.5625.75-1.125.9375-1.6875.9375s-.75-.1875-.9375-.5625c0-.1875-.18749-.5625-.18749-1.3125v-6.5625h1.49999v6.5625c0 .1875.1875.375.375.375.375 0 .5625-.1875.9375-.75v-6.1875h1.5zm5.625-2.625c0 .75 0 1.3125-.1875 1.6875-.1875.5625-.5625.9375-1.125.9375s-1.125-.375-1.5-.9375v.75h-1.5v-11.0625h1.5v3.5625c.5625-.5625.9375-.9375 1.5-.9375s.9375.375 1.125.9375c.1875.375.1875.9375.1875 1.6875zm5.625-1.3125h-3v1.5c0 .75.1875 1.125.75 1.125.375 0 .5625-.1875.75-.5625v-.9375h1.5v1.125c0 .375-.1875.5625-.375.9375-.375.5625-.9375.9375-1.875.9375-.75 0-1.3125-.375-1.875-.9375-.375-.375-.5625-1.125-.5625-1.875v-2.8125c0-.9375.1875-1.5.375-1.875.375-.5625.9375-.9375 1.875-.9375.75 0 1.3125.375 1.6875.9375.375.375.375 1.125.375 1.875v1.5z"/></g></svg>