<svg width="40" height="40" viewBox="0 0 40 40" fill="none" xmlns="http://www.w3.org/2000/svg">
<circle cx="20" cy="20" r="20" fill="#F8F8F8"/>
<path d="M17.375 5H15.6875L14.5625 9.3125L13.4375 5H11.5625C11.9375 6.125 12.3125 7.0625 12.6875 8.1875C13.25 9.6875 13.625 11 13.625 11.75V16.25H15.3125V11.75L17.375 5ZM21.875 13.4375V10.625C21.875 9.6875 21.6875 9.125 21.3125 8.5625C20.9375 8 20.375 7.8125 19.625 7.8125C18.875 7.8125 18.3125 8.1875 17.9375 8.75C17.5625 9.125 17.375 9.6875 17.375 10.625V13.625C17.375 14.5625 17.5625 15.125 17.9375 15.5C18.3125 16.0625 18.875 16.25 19.625 16.25C20.375 16.25 20.9375 15.875 21.3125 15.3125C21.6875 15.125 21.875 14.375 21.875 13.4375ZM20.375 13.8125C20.375 14.5625 20.1875 14.9375 19.625 14.9375C19.0625 14.9375 18.875 14.5625 18.875 13.8125V10.25C18.875 9.5 19.0625 9.125 19.625 9.125C20.1875 9.125 20.375 9.5 20.375 10.25V13.8125ZM27.5 16.25V7.8125H26V14.1875C25.625 14.75 25.4375 14.9375 25.0625 14.9375C24.875 14.9375 24.6875 14.75 24.6875 14.5625V7.8125H23.1875V14.375C23.1875 14.9375 23.1875 15.3125 23.375 15.6875C23.375 16.0625 23.75 16.25 24.3125 16.25C24.875 16.25 25.4375 15.875 26 15.3125V16.25H27.5Z" fill="black"/>
<path d="M28.25 24.6875C27.6875 24.6875 27.5 25.0625 27.5 25.8125V26.5625H29V25.8125C29 25.0625 28.8125 24.6875 28.25 24.6875Z" fill="black"/>
<path d="M22.8126 24.6875C22.6251 24.6875 22.2501 24.875 22.0626 25.0625V30.125C22.2501 30.3125 22.6251 30.5 22.8126 30.5C23.1876 30.5 23.3751 30.125 23.3751 29.375V25.8125C23.3751 25.0625 23.1876 24.6875 22.8126 24.6875Z" fill="black"/>
<path d="M31.9999 20.5625C31.6249 19.25 30.4999 18.125 29.3749 18.125C26.3749 17.75 23.1874 17.75 19.9999 17.75C16.8124 17.75 13.8124 17.75 10.6249 18.125C9.49991 18.125 8.37491 19.25 7.99991 20.5625C7.62491 22.4375 7.62491 24.5 7.62491 26.375C7.62491 28.25 7.62491 30.3125 7.99991 32.1875C8.37491 33.5 9.31241 34.4375 10.6249 34.625C13.8124 35 16.8124 35 19.9999 35C23.1874 35 26.1874 35 29.3749 34.625C30.6874 34.4375 31.8124 33.5 31.9999 32.1875C32.3749 30.3125 32.3749 28.25 32.3749 26.375C32.3749 24.5 32.3749 22.4375 31.9999 20.5625ZM14.7499 22.25H12.8749V31.8125H11.1874V22.25H9.49991V20.5625H14.7499V22.25ZM19.2499 31.8125H17.7499V30.875C17.1874 31.625 16.6249 31.8125 16.0624 31.8125C15.4999 31.8125 15.3124 31.625 15.1249 31.25C15.1249 31.0625 14.9374 30.6875 14.9374 29.9375V23.375H16.4374V29.9375C16.4374 30.125 16.6249 30.3125 16.8124 30.3125C17.1874 30.3125 17.3749 30.125 17.7499 29.5625V23.375H19.2499V31.8125ZM24.8749 29.1875C24.8749 29.9375 24.8749 30.5 24.6874 30.875C24.4999 31.4375 24.1249 31.8125 23.5624 31.8125C22.9999 31.8125 22.4374 31.4375 22.0624 30.875V31.625H20.5624V20.5625H22.0624V24.125C22.6249 23.5625 22.9999 23.1875 23.5624 23.1875C24.1249 23.1875 24.4999 23.5625 24.6874 24.125C24.8749 24.5 24.8749 25.0625 24.8749 25.8125V29.1875ZM30.4999 27.875H27.4999V29.375C27.4999 30.125 27.6874 30.5 28.2499 30.5C28.6249 30.5 28.8124 30.3125 28.9999 29.9375V29H30.4999V30.125C30.4999 30.5 30.3124 30.6875 30.1249 31.0625C29.7499 31.625 29.1874 32 28.2499 32C27.4999 32 26.9374 31.625 26.3749 31.0625C25.9999 30.6875 25.8124 29.9375 25.8124 29.1875V26.375C25.8124 25.4375 25.9999 24.875 26.1874 24.5C26.5624 23.9375 27.1249 23.5625 28.0624 23.5625C28.8124 23.5625 29.3749 23.9375 29.7499 24.5C30.1249 24.875 30.1249 25.625 30.1249 26.375V27.875H30.4999Z" fill="black"/>
</svg>
